HIERARCHY
ROOT hip
{
  OFFSET 0 0 0
  CHANNELS 6 Xposition Yposition Zposition Zrotation Yrotation Xrotation
  JOINT abdomen
  {
    OFFSET 0 20.6881 -0.73152
    CHANNELS 3 Zrotation Xrotation Yrotation
    JOINT chest
    {
      OFFSET 0 11.7043 -0.48768
      CHANNELS 3 Zrotation Xrotation Yrotation
      JOINT neck
      {
        OFFSET 0 22.1894 -2.19456
        CHANNELS 3 Zrotation Xrotation Yrotation
        JOINT head
        {
          OFFSET -0.24384 7.07133 1.2192
          CHANNELS 3 Zrotation Xrotation Yrotation
          JOINT leftEye
          {
            OFFSET 4.14528 8.04674 8.04672
            CHANNELS 3 Zrotation Xrotation Yrotation
            End Site
            {
              OFFSET 1 0 0
            }
          }
          JOINT rightEye
          {
            OFFSET -3.6576 8.04674 8.04672
            CHANNELS 3 Zrotation Xrotation Yrotation
            End Site
            {
              OFFSET 1 0 0
            }
          }
        }
      }
      JOINT rCollar
      {
        OFFSET -2.68224 19.2634 -4.8768
        CHANNELS 3 Zrotation Xrotation Yrotation
        JOINT rShldr
        {
          OFFSET -8.77824 -1.95073 1.46304
          CHANNELS 3 Zrotation Xrotation Yrotation
          JOINT rForeArm
          {
            OFFSET -28.1742 -1.7115 0.48768
            CHANNELS 3 Zrotation Xrotation Yrotation
            JOINT rHand
            {
              OFFSET -22.5879 0.773209 7.07136
              CHANNELS 3 Zrotation Xrotation Yrotation
              JOINT rThumb1
              {
                OFFSET -1.2192 -0.487915 3.41376
                CHANNELS 3 Zrotation Xrotation Yrotation
                JOINT rThumb2
                {
                  OFFSET -3.37035 -0.52449 3.41376
                  CHANNELS 3 Zrotation Xrotation Yrotation
                  End Site
                  {
                    OFFSET -1.78271 -1.18214 1.43049
                  }
                }
              }
              JOINT rIndex1
              {
                OFFSET -7.75947 0.938293 5.60832
                CHANNELS 3 Zrotation Xrotation Yrotation
                JOINT rIndex2
                {
                  OFFSET -2.54057 -0.884171 1.56538
                  CHANNELS 3 Zrotation Xrotation Yrotation
                  End Site
                  {
                    OFFSET -1.62519 -0.234802 1.16502
                  }
                }
              }
              JOINT rMid1
              {
                OFFSET -8.24714 1.18213 3.41376
                CHANNELS 3 Zrotation Xrotation Yrotation
                JOINT rMid2
                {
                  OFFSET -3.10165 -0.590103 1.0647
                  CHANNELS 3 Zrotation Xrotation Yrotation
                  End Site
                  {
                    OFFSET -2.48547 -0.328903 0.83742
                  }
                }
              }
              JOINT rRing1
              {
                OFFSET -8.82822 0.546677 1.51678
                CHANNELS 3 Zrotation Xrotation Yrotation
                JOINT rRing2
                {
                  OFFSET -2.60934 -0.819778 -0.0198488
                  CHANNELS 3 Zrotation Xrotation Yrotation
                  End Site
                  {
                    OFFSET -2.33842 -0.294052 0.168128
                  }
                }
              }
              JOINT rPinky1
              {
                OFFSET -8.27202 -0.0477905 -0.4584
                CHANNELS 3 Zrotation Xrotation Yrotation
                JOINT rPinky2
                {
                  OFFSET -1.82734 -0.647385 -0.700984
                  CHANNELS 3 Zrotation Xrotation Yrotation
                  End Site
                  {
                    OFFSET -1.69225 -0.51767 -0.607171
                  }
                }
              }
            }
          }
        }
      }
      JOINT lCollar
      {
        OFFSET 2.68224 19.2634 -4.8768
        CHANNELS 3 Zrotation Xrotation Yrotation
        JOINT lShldr
        {
          OFFSET 8.77824 -1.95073 1.46304
          CHANNELS 3 Zrotation Xrotation Yrotation
          JOINT lForeArm
          {
            OFFSET 28.1742 -1.7115 0.48768
            CHANNELS 3 Zrotation Xrotation Yrotation
            JOINT lHand
            {
              OFFSET 22.5879 0.773209 7.07136
              CHANNELS 3 Zrotation Xrotation Yrotation
              JOINT lThumb1
              {
                OFFSET 1.2192 -0.487915 3.41376
                CHANNELS 3 Zrotation Xrotation Yrotation
                JOINT lThumb2
                {
                  OFFSET 3.37035 -0.52449 3.41376
                  CHANNELS 3 Zrotation Xrotation Yrotation
                  End Site
                  {
                    OFFSET 1.78271 -1.18214 1.43049
                  }
                }
              }
              JOINT lIndex1
              {
                OFFSET 7.75947 0.938293 5.60832
                CHANNELS 3 Zrotation Xrotation Yrotation
                JOINT lIndex2
                {
                  OFFSET 2.54057 -0.884171 1.56538
                  CHANNELS 3 Zrotation Xrotation Yrotation
                  End Site
                  {
                    OFFSET 1.62519 -0.234802 1.16502
                  }
                }
              }
              JOINT lMid1
              {
                OFFSET 8.24714 1.18213 3.41376
                CHANNELS 3 Zrotation Xrotation Yrotation
                JOINT lMid2
                {
                  OFFSET 3.10165 -0.590103 1.0647
                  CHANNELS 3 Zrotation Xrotation Yrotation
                  End Site
                  {
                    OFFSET 2.48547 -0.328903 0.83742
                  }
                }
              }
              JOINT lRing1
              {
                OFFSET 8.82822 0.546677 1.51678
                CHANNELS 3 Zrotation Xrotation Yrotation
                JOINT lRing2
                {
                  OFFSET 2.60934 -0.819778 -0.0198488
                  CHANNELS 3 Zrotation Xrotation Yrotation
                  End Site
                  {
                    OFFSET 2.33842 -0.294052 0.168128
                  }
                }
              }
              JOINT lPinky1
              {
                OFFSET 8.27202 -0.0477905 -0.4584
                CHANNELS 3 Zrotation Xrotation Yrotation
                JOINT lPinky2
                {
                  OFFSET 1.82734 -0.647385 -0.700984
                  CHANNELS 3 Zrotation Xrotation Yrotation
                  End Site
                  {
                    OFFSET 1.69225 -0.51767 -0.607171
                  }
                }
              }
            }
          }
        }
      }
    }
  }
  JOINT rButtock
  {
    OFFSET -8.77824 4.35084 1.2192
    CHANNELS 3 Zrotation Xrotation Yrotation
    JOINT rThigh
    {
      OFFSET 0 -1.70687 -2.19456
      CHANNELS 3 Zrotation Xrotation Yrotation
      JOINT rShin
      {
        OFFSET 0 -36.8199 0.73152
        CHANNELS 3 Zrotation Xrotation Yrotation
        JOINT rFoot
        {
          OFFSET 0.73152 -45.1104 -5.12064
          CHANNELS 3 Zrotation Xrotation Yrotation
          End Site
          {
            OFFSET -1.1221 -3.69964 12.103
          }
        }
      }
    }
  }
  JOINT lButtock
  {
    OFFSET 8.77824 4.35084 1.2192
    CHANNELS 3 Zrotation Xrotation Yrotation
    JOINT lThigh
    {
      OFFSET 0 -1.70687 -2.19456
      CHANNELS 3 Zrotation Xrotation Yrotation
      JOINT lShin
      {
        OFFSET 0 -36.8199 0.73152
        CHANNELS 3 Zrotation Xrotation Yrotation
        JOINT lFoot
        {
          OFFSET -0.73152 -45.1104 -5.12064
          CHANNELS 3 Zrotation Xrotation Yrotation
          End Site
          {
            OFFSET 1.1221 -3.69964 12.103
          }
        }
      }
    }
  }
}
MOTION
Frames:	5
Frame Time:	0.03333
-15.807099999999998 57.9893 -26.6912 -27.98559 89.230302 -20.681305 -3.095316 51.225845 -6.49872 155.743823 -43.996554 160.875308 153.791869 -49.541204 -136.538372 -55.046691 -17.688425 -64.115455 1.058163 -0.509606 -51.429447 -157.075952 -14.907851 -65.665144 92.876061 52.723534 -102.470403 55.413144 15.431029 -5.114894 -164.596526 55.682939 3.88579 -119.781388 37.092642 73.582802 -27.143334 -41.392379 -65.292675 -145.579954 -73.243015 171.920276 92.650839 61.297255 -127.889826 -39.458722 83.874242 30.894265 -29.916384 -10.643192 -51.069901 -21.724414 -66.56079 -26.555538 100.133587 61.762775 -99.616061 -14.050398 -59.164755 -42.200075 -21.849429 19.321274 -28.961654 -47.000782 71.96452 92.045318 -103.132126 57.385602 79.062901 -50.485574 10.692497 -23.189631 163.110166 -73.032839 -61.184457 -178.175192 11.603641 -114.141226 161.307538 -28.088739 -103.375385 -116.08515 6.534106 -86.191507 84.049018 1.840973 146.499602 77.342567 -20.443656 164.480605 83.849624 -40.358333 106.536322 -2.891604 3.069255 36.652764 103.569516 0.743249 128.117365 -26.436463 30.567878 -5.83533 111.669263 -9.967139 111.139559 43.981244 -66.870579 8.043951 -14.793752 6.925578 21.512308 52.345081 -53.1722 -180.0 43.219536 -61.566974 -35.214013 122.09371 39.528882 139.317683 -77.126945 53.262043 -43.766495 79.425448 -19.434547 -180.0 83.835605 -50.164166 54.843007 -58.319018 24.84384 -70.065094
-15.867600000000001 51.071200000000005 -27.025 -74.246152 89.627823 -66.854418 0.074291 42.438035 179.889906 -160.635688 61.44056 -13.486079 177.677188 -48.367888 123.740012 52.300941 -23.578494 67.703673 -6.584423 2.499216 -41.534183 -167.356338 -6.011631 -50.719077 151.834941 44.002519 -134.211642 54.467265 0.82391 25.728897 42.564023 82.060033 153.694774 -91.545953 40.886266 41.530831 174.297941 3.277993 144.640979 23.619325 -38.524943 31.998624 -87.340342 -26.635087 -112.357567 174.872479 -14.382617 82.48787 175.424652 0.917563 -165.224905 -14.158846 39.486349 30.438911 -168.820504 4.62703 -135.420492 18.502423 1.399486 4.896284 -154.284696 -9.483603 -93.493782 -156.395507 28.074092 -120.691588 120.347817 0.997926 146.995405 -149.349913 -6.277747 -148.005375 -24.398918 -72.466489 110.886902 176.34892 21.147547 -111.778872 -88.90738 -61.376109 -15.947081 122.869475 -53.781971 100.963851 13.598474 -5.938902 111.971835 -113.2283 -8.415838 17.613862 179.094516 11.388768 161.222703 113.168816 64.045095 -60.826799 64.755112 -20.620794 105.805814 -94.960032 -77.238812 -68.496455 -24.900816 19.614493 17.268407 137.191153 26.712263 116.245803 -81.599936 10.753673 -27.047066 127.110353 -1.953928 -4.082682 -62.869887 47.825672 -41.398357 95.879855 39.210483 20.358332 -76.253048 53.801988 -44.473024 77.715166 -20.393472 131.457586 81.646836 6.906792 148.771488 -147.356726 -22.749922 -174.589398
-16.0684 41.675200000000004 -27.230999999999998 -79.798593 88.865342 -72.775286 3.99612 36.031091 -180.0 -161.371321 76.55882 -11.054629 171.736674 -33.696633 163.630591 11.770028 -43.34152 19.989667 -31.260179 -8.035336 28.185752 177.517376 0.951034 -41.916175 98.367477 57.702125 -91.939906 -116.73789 0.622326 174.316312 -86.809167 66.123157 -131.315338 -137.484885 -63.754139 163.691778 -171.115837 -48.367466 156.539315 -143.448628 5.722591 68.1474 -8.120654 33.103359 -71.360606 -169.778875 13.416683 125.075599 35.576995 58.479962 -76.989825 -166.581714 -5.661676 158.290076 135.56995 56.609373 -133.254457 17.201515 0.234311 -1.065531 -139.290314 -15.154808 -87.777719 52.851456 52.344349 -13.763597 63.225293 -38.501809 114.52249 -148.436379 32.528862 162.443569 -67.073073 -85.763345 67.67588 177.073429 18.466159 -109.98831 1.964612 37.951018 -0.673535 68.015084 -36.588768 168.746369 -68.235378 34.332047 97.155899 -10.52223 -35.730931 -66.640157 -16.648287 43.891365 60.634997 151.550089 -33.107962 -109.432314 69.048927 -21.693057 102.880237 162.704141 -48.199354 -162.736833 -21.904795 25.780618 15.876472 101.822736 -6.528923 112.90132 48.724246 53.628182 48.931837 -80.626562 -38.399696 -76.505485 -66.100147 56.291089 -97.024136 23.122678 67.224081 107.419218 142.317672 62.902157 40.946074 143.433071 18.914914 -180.0 68.518485 -65.275868 -28.452054 -47.983464 -36.209302 -34.045004
-16.4356 36.2107 -27.286500000000004 -41.263834 86.669882 -35.082852 5.982557 32.90273 -6.195904 66.782209 -81.925736 79.427781 162.566745 -23.691368 -121.493987 -48.830273 -8.31391 -65.563906 -24.67095 -16.126369 65.871111 -179.209667 -0.716915 -84.422539 78.264898 51.250132 -67.262525 -120.480942 -1.756988 176.142843 56.65093 -67.036072 -117.695253 -88.778879 39.9771 30.634473 -151.130305 -65.069439 170.717347 148.672475 -45.816587 105.068258 88.993181 69.162813 -130.149929 -174.471488 -70.870512 113.883435 -4.750245 17.909055 -53.013374 161.277285 -63.022383 142.402746 -174.864081 7.417424 -143.583213 -162.062596 -64.102101 -177.575582 40.882175 55.080734 -40.886709 -165.722347 23.740876 -147.551547 125.726524 13.253447 166.095993 103.664413 48.699416 -77.453175 136.526351 -14.261837 65.096489 -28.881619 -48.99306 18.81014 -0.427119 30.618183 4.064581 46.383789 -47.375263 139.343693 152.026154 22.605095 167.407565 -178.639165 -16.010977 -167.090403 170.830379 10.005717 164.42998 -1.544881 -76.423327 -16.533714 146.274362 21.256463 136.757642 72.861655 -71.262383 101.883363 -19.918828 33.183529 9.040205 139.553352 51.254093 120.210736 -108.646188 25.859427 -42.354346 160.740039 12.201336 -0.0 -34.924143 73.865373 -114.052416 -173.820894 -13.32046 -92.282619 -150.1207 73.264837 -0.0 116.663096 3.301555 4.293713 -73.88662 55.870159 172.660029 68.005974 -53.482081 22.139369
-16.799 37.4251 -27.2911 -39.003649 85.787937 -33.307451 4.445928 25.331086 71.88162 -70.374452 -18.797354 -70.659231 176.40295 -33.497107 29.620604 49.627385 50.424888 120.735109 -21.946317 -15.947091 71.689034 -3.524746 2.137427 -62.455616 104.354918 58.528147 -78.390191 43.974018 20.745952 18.808045 46.809038 77.842687 152.297124 -111.292062 42.091209 54.421142 -108.114029 -76.154747 -150.65894 -67.34325 10.252526 10.134753 -16.385232 11.881762 -67.162179 1.894466 -4.509938 -22.310906 176.388739 26.598422 -168.732345 -148.030841 -7.593387 147.041825 -19.638387 11.711312 -33.572613 -151.49321 21.440618 176.507099 -50.574824 -17.52164 -41.064775 -98.057879 78.646397 139.321248 97.438004 -41.650681 152.917435 -151.910425 -1.838339 172.688459 -177.505636 -64.755039 -40.225704 -170.855833 15.049795 -112.566214 169.989534 -29.492796 -100.819981 175.275088 20.773536 -41.73819 -35.403258 39.240762 55.232117 6.488652 -12.078023 -26.511893 -173.875302 46.932509 160.345087 -166.636592 2.098291 -124.102485 72.845708 -32.313056 99.491806 -31.408166 -87.771016 1.875742 146.088614 23.555432 126.512164 12.46817 2.71306 -39.140121 -81.070072 9.367487 -26.889935 126.91514 0.569284 0.0 -39.78714 55.682381 65.976611 -46.410795 17.956828 -59.73951 -68.616059 55.167356 -47.84208 82.33867 -24.170511 -29.244676 -72.111599 17.650677 114.235839 -29.465575 -68.589575 4.937008
